<svg width="589" height="294" viewBox="0 0 589 294" fill="none" xmlns="http://www.w3.org/2000/svg">
<g clip-path="url(#clip0_0_4)">
<path d="M370.183 270.273V279H369.126V271.381H369.075L366.944 272.795V271.722L369.126 270.273H370.183Z" fill="white"/>
<path d="M379.936 275.96V277.728C379.936 277.928 379.872 277.976 379.64 277.976C379.256 277.976 378.896 277.952 378.496 277.896C378.568 278.104 378.6 278.232 378.624 278.44C378.984 278.464 379.32 278.472 379.584 278.472C379.944 278.472 380.096 278.448 380.224 278.368C380.376 278.264 380.448 278.096 380.448 277.808V272.544C380.448 272.136 380.456 271.936 380.48 271.72C380.208 271.752 380 271.76 379.648 271.76H376.64C376.296 271.76 376.088 271.752 375.8 271.72C375.824 272.024 375.832 272.344 375.832 273.08C375.832 274.856 375.744 275.84 375.52 276.6C375.328 277.248 375.072 277.672 374.576 278.168C374.76 278.296 374.872 278.408 375.016 278.592C375.464 278.08 375.688 277.728 375.896 277.2C376.048 276.824 376.152 276.424 376.224 275.96H379.936ZM376.28 275.48C376.344 274.8 376.36 274.496 376.368 274.056H379.936V275.48H376.28ZM376.368 273.576V273.384L376.376 272.248H379.936V273.576H376.368Z" fill="white"/>
<path d="M575.98 279.119C575.48 279.119 575.03 279.02 574.629 278.821C574.229 278.622 573.908 278.349 573.666 278.003C573.425 277.656 573.293 277.261 573.27 276.818H574.293C574.333 277.213 574.512 277.54 574.83 277.798C575.151 278.054 575.534 278.182 575.98 278.182C576.338 278.182 576.656 278.098 576.935 277.93C577.216 277.763 577.436 277.533 577.595 277.24C577.757 276.945 577.838 276.611 577.838 276.239C577.838 275.858 577.754 275.518 577.587 275.22C577.422 274.919 577.195 274.682 576.905 274.509C576.615 274.335 576.284 274.247 575.912 274.244C575.645 274.241 575.371 274.283 575.09 274.368C574.808 274.45 574.577 274.557 574.395 274.688L573.406 274.568L573.935 270.273H578.469V271.21H574.821L574.514 273.784H574.566C574.744 273.642 574.969 273.524 575.239 273.43C575.509 273.337 575.79 273.29 576.083 273.29C576.617 273.29 577.093 273.418 577.51 273.673C577.931 273.926 578.26 274.273 578.499 274.713C578.74 275.153 578.861 275.656 578.861 276.222C578.861 276.778 578.736 277.276 578.486 277.713C578.239 278.148 577.898 278.491 577.463 278.744C577.029 278.994 576.534 279.119 575.98 279.119Z" fill="white"/>
<path d="M586.936 275.96V277.728C586.936 277.928 586.872 277.976 586.64 277.976C586.256 277.976 585.896 277.952 585.496 277.896C585.568 278.104 585.6 278.232 585.624 278.44C585.984 278.464 586.32 278.472 586.584 278.472C586.944 278.472 587.096 278.448 587.224 278.368C587.376 278.264 587.448 278.096 587.448 277.808V272.544C587.448 272.136 587.456 271.936 587.48 271.72C587.208 271.752 587 271.76 586.648 271.76H583.64C583.296 271.76 583.088 271.752 582.8 271.72C582.824 272.024 582.832 272.344 582.832 273.08C582.832 274.856 582.744 275.84 582.52 276.6C582.328 277.248 582.072 277.672 581.576 278.168C581.76 278.296 581.872 278.408 582.016 278.592C582.464 278.08 582.688 277.728 582.896 277.2C583.048 276.824 583.152 276.424 583.224 275.96H586.936ZM583.28 275.48C583.344 274.8 583.36 274.496 583.368 274.056H586.936V275.48H583.28ZM583.368 273.576V273.384L583.376 272.248H586.936V273.576H583.368Z" fill="white"/>
<path d="M418.271 279V278.233L421.151 275.08C421.489 274.71 421.768 274.389 421.987 274.116C422.205 273.841 422.367 273.582 422.472 273.341C422.58 273.097 422.634 272.841 422.634 272.574C422.634 272.267 422.56 272.001 422.413 271.777C422.268 271.553 422.069 271.379 421.816 271.257C421.563 271.135 421.279 271.074 420.964 271.074C420.629 271.074 420.336 271.143 420.086 271.283C419.839 271.419 419.647 271.611 419.511 271.858C419.377 272.105 419.31 272.395 419.31 272.727H418.305C418.305 272.216 418.423 271.767 418.658 271.381C418.894 270.994 419.215 270.693 419.621 270.477C420.031 270.261 420.489 270.153 420.998 270.153C421.509 270.153 421.962 270.261 422.357 270.477C422.752 270.693 423.062 270.984 423.286 271.351C423.511 271.717 423.623 272.125 423.623 272.574C423.623 272.895 423.565 273.209 423.448 273.516C423.335 273.82 423.136 274.159 422.852 274.534C422.57 274.906 422.18 275.361 421.68 275.898L419.719 277.994V278.062H423.776V279H418.271Z" fill="white"/>
<path d="M431.936 275.96V277.728C431.936 277.928 431.872 277.976 431.64 277.976C431.256 277.976 430.896 277.952 430.496 277.896C430.568 278.104 430.6 278.232 430.624 278.44C430.984 278.464 431.32 278.472 431.584 278.472C431.944 278.472 432.096 278.448 432.224 278.368C432.376 278.264 432.448 278.096 432.448 277.808V272.544C432.448 272.136 432.456 271.936 432.48 271.72C432.208 271.752 432 271.76 431.648 271.76H428.64C428.296 271.76 428.088 271.752 427.8 271.72C427.824 272.024 427.832 272.344 427.832 273.08C427.832 274.856 427.744 275.84 427.52 276.6C427.328 277.248 427.072 277.672 426.576 278.168C426.76 278.296 426.872 278.408 427.016 278.592C427.464 278.08 427.688 277.728 427.896 277.2C428.048 276.824 428.152 276.424 428.224 275.96H431.936ZM428.28 275.48C428.344 274.8 428.36 274.496 428.368 274.056H431.936V275.48H428.28ZM428.368 273.576V273.384L428.376 272.248H431.936V273.576H428.368Z" fill="white"/>
<path d="M3.057 279.119C2.69904 279.114 2.34109 279.045 1.98313 278.915C1.62518 278.784 1.29847 278.564 1.00302 278.254C0.707564 277.942 0.470348 277.52 0.291371 276.989C0.112393 276.455 0.0229048 275.784 0.0229048 274.977C0.0229048 274.205 0.095348 273.52 0.240234 272.923C0.385121 272.324 0.595348 271.82 0.870916 271.411C1.14648 270.999 1.47887 270.686 1.86808 270.473C2.26012 270.26 2.70188 270.153 3.19336 270.153C3.682 270.153 4.11665 270.251 4.49734 270.447C4.88086 270.641 5.19336 270.911 5.43484 271.257C5.67631 271.604 5.83256 272.003 5.90359 272.455H4.86381C4.76722 272.062 4.57972 271.737 4.30131 271.479C4.0229 271.22 3.65359 271.091 3.19336 271.091C2.51722 271.091 1.98455 271.385 1.59535 271.973C1.20898 272.561 1.01438 273.386 1.01154 274.449H1.07972C1.23881 274.207 1.42773 274.001 1.64648 273.831C1.86808 273.658 2.11239 273.524 2.37944 273.43C2.64648 273.337 2.92915 273.29 3.22745 273.29C3.72745 273.29 4.18484 273.415 4.59961 273.665C5.01438 273.912 5.34677 274.254 5.59677 274.692C5.84677 275.126 5.97177 275.625 5.97177 276.188C5.97177 276.727 5.85103 277.222 5.60955 277.67C5.36808 278.116 5.02859 278.472 4.59109 278.736C4.15643 278.997 3.64506 279.125 3.057 279.119ZM3.057 278.182C3.41495 278.182 3.73597 278.092 4.02006 277.913C4.307 277.734 4.53285 277.494 4.69762 277.193C4.86523 276.892 4.94904 276.557 4.94904 276.188C4.94904 275.827 4.86808 275.499 4.70614 275.203C4.54705 274.905 4.32688 274.668 4.04563 274.491C3.76722 274.315 3.44904 274.227 3.09109 274.227C2.8212 274.227 2.56978 274.281 2.33683 274.389C2.10387 274.494 1.89933 274.639 1.72319 274.824C1.54989 275.009 1.41353 275.22 1.3141 275.459C1.21467 275.695 1.16495 275.943 1.16495 276.205C1.16495 276.551 1.24592 276.875 1.40785 277.176C1.57262 277.477 1.79705 277.72 2.08114 277.905C2.36808 278.089 2.69336 278.182 3.057 278.182Z" fill="white"/>
<path d="M13.936 275.96V277.728C13.936 277.928 13.872 277.976 13.64 277.976C13.256 277.976 12.896 277.952 12.496 277.896C12.568 278.104 12.6 278.232 12.624 278.44C12.984 278.464 13.32 278.472 13.584 278.472C13.944 278.472 14.096 278.448 14.224 278.368C14.376 278.264 14.448 278.096 14.448 277.808V272.544C14.448 272.136 14.456 271.936 14.48 271.72C14.208 271.752 14 271.76 13.648 271.76H10.64C10.296 271.76 10.088 271.752 9.8 271.72C9.824 272.024 9.832 272.344 9.832 273.08C9.832 274.856 9.744 275.84 9.52 276.6C9.328 277.248 9.072 277.672 8.576 278.168C8.76 278.296 8.872 278.408 9.016 278.592C9.464 278.08 9.688 277.728 9.896 277.2C10.048 276.824 10.152 276.424 10.224 275.96H13.936ZM10.28 275.48C10.344 274.8 10.36 274.496 10.368 274.056H13.936V275.48H10.28ZM10.368 273.576V273.384L10.376 272.248H13.936V273.576H10.368Z" fill="white"/>
<path d="M157.938 270.153C158.296 270.156 158.654 270.224 159.012 270.358C159.369 270.491 159.696 270.713 159.992 271.023C160.287 271.33 160.524 271.749 160.703 272.28C160.882 272.811 160.972 273.477 160.972 274.278C160.972 275.054 160.898 275.743 160.75 276.345C160.605 276.945 160.395 277.45 160.119 277.862C159.847 278.274 159.514 278.587 159.122 278.8C158.733 279.013 158.293 279.119 157.801 279.119C157.313 279.119 156.877 279.023 156.493 278.83C156.112 278.634 155.8 278.362 155.556 278.016C155.314 277.666 155.159 277.261 155.091 276.801H156.131C156.225 277.202 156.411 277.533 156.689 277.794C156.97 278.053 157.341 278.182 157.801 278.182C158.475 278.182 159.006 277.888 159.395 277.3C159.787 276.712 159.983 275.881 159.983 274.807H159.915C159.756 275.045 159.567 275.251 159.348 275.425C159.129 275.598 158.887 275.732 158.619 275.825C158.352 275.919 158.068 275.966 157.767 275.966C157.267 275.966 156.808 275.842 156.391 275.595C155.976 275.345 155.644 275.003 155.394 274.568C155.146 274.131 155.023 273.631 155.023 273.068C155.023 272.534 155.142 272.045 155.381 271.602C155.622 271.156 155.96 270.801 156.395 270.537C156.833 270.273 157.347 270.145 157.938 270.153ZM157.938 271.091C157.58 271.091 157.257 271.18 156.97 271.359C156.686 271.536 156.46 271.774 156.293 272.075C156.128 272.374 156.046 272.705 156.046 273.068C156.046 273.432 156.125 273.763 156.284 274.061C156.446 274.357 156.666 274.592 156.945 274.768C157.226 274.942 157.546 275.028 157.904 275.028C158.173 275.028 158.425 274.976 158.658 274.871C158.891 274.763 159.094 274.616 159.267 274.432C159.443 274.244 159.581 274.033 159.681 273.797C159.78 273.558 159.83 273.31 159.83 273.051C159.83 272.71 159.747 272.391 159.583 272.092C159.421 271.794 159.196 271.553 158.909 271.368C158.625 271.183 158.301 271.091 157.938 271.091Z" fill="white"/>
<path d="M168.936 275.96V277.728C168.936 277.928 168.872 277.976 168.64 277.976C168.256 277.976 167.896 277.952 167.496 277.896C167.568 278.104 167.6 278.232 167.624 278.44C167.984 278.464 168.32 278.472 168.584 278.472C168.944 278.472 169.096 278.448 169.224 278.368C169.376 278.264 169.448 278.096 169.448 277.808V272.544C169.448 272.136 169.456 271.936 169.48 271.72C169.208 271.752 169 271.76 168.648 271.76H165.64C165.296 271.76 165.088 271.752 164.8 271.72C164.824 272.024 164.832 272.344 164.832 273.08C164.832 274.856 164.744 275.84 164.52 276.6C164.328 277.248 164.072 277.672 163.576 278.168C163.76 278.296 163.872 278.408 164.016 278.592C164.464 278.08 164.688 277.728 164.896 277.2C165.048 276.824 165.152 276.424 165.224 275.96H168.936ZM165.28 275.48C165.344 274.8 165.36 274.496 165.368 274.056H168.936V275.48H165.28ZM165.368 273.576V273.384L165.376 272.248H168.936V273.576H165.368Z" fill="white"/>
<path d="M473.032 279.119C472.469 279.119 471.968 279.023 471.528 278.83C471.09 278.636 470.742 278.368 470.484 278.024C470.228 277.678 470.089 277.276 470.066 276.818H471.14C471.163 277.099 471.259 277.342 471.43 277.547C471.6 277.749 471.823 277.905 472.099 278.016C472.374 278.126 472.68 278.182 473.015 278.182C473.39 278.182 473.722 278.116 474.012 277.986C474.302 277.855 474.529 277.673 474.694 277.44C474.859 277.207 474.941 276.938 474.941 276.631C474.941 276.31 474.862 276.027 474.702 275.783C474.543 275.536 474.31 275.342 474.004 275.203C473.697 275.064 473.322 274.994 472.879 274.994H472.18V274.057H472.879C473.225 274.057 473.529 273.994 473.79 273.869C474.055 273.744 474.261 273.568 474.408 273.341C474.559 273.114 474.634 272.847 474.634 272.54C474.634 272.244 474.569 271.987 474.438 271.768C474.308 271.55 474.123 271.379 473.884 271.257C473.648 271.135 473.37 271.074 473.049 271.074C472.748 271.074 472.464 271.129 472.197 271.24C471.933 271.348 471.717 271.506 471.549 271.713C471.381 271.918 471.29 272.165 471.276 272.455H470.254C470.271 271.997 470.408 271.597 470.667 271.253C470.925 270.906 471.263 270.636 471.681 270.443C472.102 270.25 472.563 270.153 473.066 270.153C473.606 270.153 474.069 270.263 474.455 270.482C474.842 270.697 475.138 270.983 475.346 271.338C475.553 271.693 475.657 272.077 475.657 272.489C475.657 272.98 475.528 273.399 475.269 273.746C475.013 274.092 474.665 274.332 474.225 274.466V274.534C474.776 274.625 475.207 274.859 475.516 275.237C475.826 275.612 475.981 276.077 475.981 276.631C475.981 277.105 475.852 277.531 475.593 277.909C475.337 278.284 474.988 278.58 474.545 278.795C474.102 279.011 473.597 279.119 473.032 279.119Z" fill="white"/>
<path d="M483.936 275.96V277.728C483.936 277.928 483.872 277.976 483.64 277.976C483.256 277.976 482.896 277.952 482.496 277.896C482.568 278.104 482.6 278.232 482.624 278.44C482.984 278.464 483.32 278.472 483.584 278.472C483.944 278.472 484.096 278.448 484.224 278.368C484.376 278.264 484.448 278.096 484.448 277.808V272.544C484.448 272.136 484.456 271.936 484.48 271.72C484.208 271.752 484 271.76 483.648 271.76H480.64C480.296 271.76 480.088 271.752 479.8 271.72C479.824 272.024 479.832 272.344 479.832 273.08C479.832 274.856 479.744 275.84 479.52 276.6C479.328 277.248 479.072 277.672 478.576 278.168C478.76 278.296 478.872 278.408 479.016 278.592C479.464 278.08 479.688 277.728 479.896 277.2C480.048 276.824 480.152 276.424 480.224 275.96H483.936ZM480.28 275.48C480.344 274.8 480.36 274.496 480.368 274.056H483.936V275.48H480.28ZM480.368 273.576V273.384L480.376 272.248H483.936V273.576H480.368Z" fill="white"/>
<path d="M53.2484 279L57.1518 271.278V271.21H52.6518V270.273H58.2427V271.261L54.3564 279H53.2484Z" fill="white"/>
<path d="M65.936 275.96V277.728C65.936 277.928 65.872 277.976 65.64 277.976C65.256 277.976 64.896 277.952 64.496 277.896C64.568 278.104 64.6 278.232 64.624 278.44C64.984 278.464 65.32 278.472 65.584 278.472C65.944 278.472 66.096 278.448 66.224 278.368C66.376 278.264 66.448 278.096 66.448 277.808V272.544C66.448 272.136 66.456 271.936 66.48 271.72C66.208 271.752 66 271.76 65.648 271.76H62.64C62.296 271.76 62.088 271.752 61.8 271.72C61.824 272.024 61.832 272.344 61.832 273.08C61.832 274.856 61.744 275.84 61.52 276.6C61.328 277.248 61.072 277.672 60.576 278.168C60.76 278.296 60.872 278.408 61.016 278.592C61.464 278.08 61.688 277.728 61.896 277.2C62.048 276.824 62.152 276.424 62.224 275.96H65.936ZM62.28 275.48C62.344 274.8 62.36 274.496 62.368 274.056H65.936V275.48H62.28ZM62.368 273.576V273.384L62.376 272.248H65.936V273.576H62.368Z" fill="white"/>
<path d="M207.433 270.273V279H206.376V271.381H206.325L204.194 272.795V271.722L206.376 270.273H207.433ZM212.789 279.119C212.147 279.119 211.6 278.945 211.148 278.595C210.697 278.243 210.352 277.733 210.113 277.065C209.874 276.395 209.755 275.585 209.755 274.636C209.755 273.693 209.874 272.888 210.113 272.22C210.354 271.55 210.701 271.038 211.153 270.686C211.607 270.331 212.153 270.153 212.789 270.153C213.425 270.153 213.969 270.331 214.421 270.686C214.876 271.038 215.222 271.55 215.461 272.22C215.702 272.888 215.823 273.693 215.823 274.636C215.823 275.585 215.704 276.395 215.465 277.065C215.227 277.733 214.881 278.243 214.43 278.595C213.978 278.945 213.431 279.119 212.789 279.119ZM212.789 278.182C213.425 278.182 213.92 277.875 214.272 277.261C214.624 276.648 214.8 275.773 214.8 274.636C214.8 273.881 214.719 273.237 214.558 272.706C214.398 272.175 214.168 271.77 213.867 271.491C213.569 271.213 213.21 271.074 212.789 271.074C212.158 271.074 211.665 271.385 211.31 272.007C210.955 272.626 210.778 273.503 210.778 274.636C210.778 275.392 210.857 276.034 211.016 276.562C211.175 277.091 211.404 277.493 211.702 277.768C212.004 278.044 212.366 278.182 212.789 278.182Z" fill="white"/>
<path d="M222.936 275.96V277.728C222.936 277.928 222.872 277.976 222.64 277.976C222.256 277.976 221.896 277.952 221.496 277.896C221.568 278.104 221.6 278.232 221.624 278.44C221.984 278.464 222.32 278.472 222.584 278.472C222.944 278.472 223.096 278.448 223.224 278.368C223.376 278.264 223.448 278.096 223.448 277.808V272.544C223.448 272.136 223.456 271.936 223.48 271.72C223.208 271.752 223 271.76 222.648 271.76H219.64C219.296 271.76 219.088 271.752 218.8 271.72C218.824 272.024 218.832 272.344 218.832 273.08C218.832 274.856 218.744 275.84 218.52 276.6C218.328 277.248 218.072 277.672 217.576 278.168C217.76 278.296 217.872 278.408 218.016 278.592C218.464 278.08 218.688 277.728 218.896 277.2C219.048 276.824 219.152 276.424 219.224 275.96H222.936ZM219.28 275.48C219.344 274.8 219.36 274.496 219.368 274.056H222.936V275.48H219.28ZM219.368 273.576V273.384L219.376 272.248H222.936V273.576H219.368Z" fill="white"/>
<path d="M520.849 277.21V276.341L524.684 270.273H525.315V271.619H524.889L521.991 276.205V276.273H527.156V277.21H520.849ZM524.957 279V276.946V276.541V270.273H525.963V279H524.957Z" fill="white"/>
<path d="M534.936 275.96V277.728C534.936 277.928 534.872 277.976 534.64 277.976C534.256 277.976 533.896 277.952 533.496 277.896C533.568 278.104 533.6 278.232 533.624 278.44C533.984 278.464 534.32 278.472 534.584 278.472C534.944 278.472 535.096 278.448 535.224 278.368C535.376 278.264 535.448 278.096 535.448 277.808V272.544C535.448 272.136 535.456 271.936 535.48 271.72C535.208 271.752 535 271.76 534.648 271.76H531.64C531.296 271.76 531.088 271.752 530.8 271.72C530.824 272.024 530.832 272.344 530.832 273.08C530.832 274.856 530.744 275.84 530.52 276.6C530.328 277.248 530.072 277.672 529.576 278.168C529.76 278.296 529.872 278.408 530.016 278.592C530.464 278.08 530.688 277.728 530.896 277.2C531.048 276.824 531.152 276.424 531.224 275.96H534.936ZM531.28 275.48C531.344 274.8 531.36 274.496 531.368 274.056H534.936V275.48H531.28ZM531.368 273.576V273.384L531.376 272.248H534.936V273.576H531.368Z" fill="white"/>
<path d="M106.002 279.119C105.416 279.119 104.899 279.016 104.45 278.808C104.004 278.598 103.656 278.31 103.406 277.943C103.156 277.574 103.033 277.153 103.036 276.682C103.033 276.312 103.105 275.972 103.253 275.659C103.401 275.344 103.602 275.081 103.858 274.871C104.117 274.658 104.405 274.523 104.723 274.466V274.415C104.306 274.307 103.973 274.072 103.726 273.712C103.479 273.348 103.357 272.935 103.36 272.472C103.357 272.028 103.469 271.632 103.696 271.283C103.923 270.933 104.236 270.658 104.634 270.456C105.034 270.254 105.49 270.153 106.002 270.153C106.507 270.153 106.959 270.254 107.357 270.456C107.754 270.658 108.067 270.933 108.294 271.283C108.524 271.632 108.641 272.028 108.644 272.472C108.641 272.935 108.514 273.348 108.264 273.712C108.017 274.072 107.689 274.307 107.28 274.415V274.466C107.595 274.523 107.879 274.658 108.132 274.871C108.385 275.081 108.587 275.344 108.737 275.659C108.888 275.972 108.965 276.312 108.968 276.682C108.965 277.153 108.837 277.574 108.584 277.943C108.334 278.31 107.986 278.598 107.54 278.808C107.097 279.016 106.584 279.119 106.002 279.119ZM106.002 278.182C106.396 278.182 106.737 278.118 107.024 277.99C107.311 277.862 107.533 277.682 107.689 277.449C107.845 277.216 107.925 276.943 107.928 276.631C107.925 276.301 107.84 276.01 107.672 275.757C107.504 275.504 107.276 275.305 106.986 275.161C106.699 275.016 106.371 274.943 106.002 274.943C105.629 274.943 105.297 275.016 105.004 275.161C104.715 275.305 104.486 275.504 104.318 275.757C104.154 276.01 104.073 276.301 104.075 276.631C104.073 276.943 104.148 277.216 104.301 277.449C104.458 277.682 104.681 277.862 104.97 277.99C105.26 278.118 105.604 278.182 106.002 278.182ZM106.002 274.04C106.314 274.04 106.591 273.977 106.833 273.852C107.077 273.727 107.269 273.553 107.408 273.328C107.547 273.104 107.618 272.841 107.621 272.54C107.618 272.244 107.548 271.987 107.412 271.768C107.276 271.547 107.087 271.376 106.845 271.257C106.604 271.135 106.323 271.074 106.002 271.074C105.675 271.074 105.389 271.135 105.145 271.257C104.901 271.376 104.712 271.547 104.578 271.768C104.445 271.987 104.379 272.244 104.382 272.54C104.379 272.841 104.446 273.104 104.583 273.328C104.722 273.553 104.914 273.727 105.158 273.852C105.402 273.977 105.683 274.04 106.002 274.04Z" fill="white"/>
<path d="M116.936 275.96V277.728C116.936 277.928 116.872 277.976 116.64 277.976C116.256 277.976 115.896 277.952 115.496 277.896C115.568 278.104 115.6 278.232 115.624 278.44C115.984 278.464 116.32 278.472 116.584 278.472C116.944 278.472 117.096 278.448 117.224 278.368C117.376 278.264 117.448 278.096 117.448 277.808V272.544C117.448 272.136 117.456 271.936 117.48 271.72C117.208 271.752 117 271.76 116.648 271.76H113.64C113.296 271.76 113.088 271.752 112.8 271.72C112.824 272.024 112.832 272.344 112.832 273.08C112.832 274.856 112.744 275.84 112.52 276.6C112.328 277.248 112.072 277.672 111.576 278.168C111.76 278.296 111.872 278.408 112.016 278.592C112.464 278.08 112.688 277.728 112.896 277.2C113.048 276.824 113.152 276.424 113.224 275.96H116.936ZM113.28 275.48C113.344 274.8 113.36 274.496 113.368 274.056H116.936V275.48H113.28ZM113.368 273.576V273.384L113.376 272.248H116.936V273.576H113.368Z" fill="white"/>
<path d="M261.393 270.273V279H260.337V271.381H260.286L258.155 272.795V271.722L260.337 270.273H261.393ZM266.972 270.273V279H265.915V271.381H265.864L263.733 272.795V271.722L265.915 270.273H266.972Z" fill="white"/>
<path d="M275.936 275.96V277.728C275.936 277.928 275.872 277.976 275.64 277.976C275.256 277.976 274.896 277.952 274.496 277.896C274.568 278.104 274.6 278.232 274.624 278.44C274.984 278.464 275.32 278.472 275.584 278.472C275.944 278.472 276.096 278.448 276.224 278.368C276.376 278.264 276.448 278.096 276.448 277.808V272.544C276.448 272.136 276.456 271.936 276.48 271.72C276.208 271.752 276 271.76 275.648 271.76H272.64C272.296 271.76 272.088 271.752 271.8 271.72C271.824 272.024 271.832 272.344 271.832 273.08C271.832 274.856 271.744 275.84 271.52 276.6C271.328 277.248 271.072 277.672 270.576 278.168C270.76 278.296 270.872 278.408 271.016 278.592C271.464 278.08 271.688 277.728 271.896 277.2C272.048 276.824 272.152 276.424 272.224 275.96H275.936ZM272.28 275.48C272.344 274.8 272.36 274.496 272.368 274.056H275.936V275.48H272.28ZM272.368 273.576V273.384L272.376 272.248H275.936V273.576H272.368Z" fill="white"/>
<path d="M314.05 270.273V279H312.993V271.381H312.942L310.811 272.795V271.722L312.993 270.273H314.05ZM316.56 279V278.233L319.44 275.08C319.778 274.71 320.057 274.389 320.276 274.116C320.494 273.841 320.656 273.582 320.761 273.341C320.869 273.097 320.923 272.841 320.923 272.574C320.923 272.267 320.849 272.001 320.702 271.777C320.557 271.553 320.358 271.379 320.105 271.257C319.852 271.135 319.568 271.074 319.253 271.074C318.918 271.074 318.625 271.143 318.375 271.283C318.128 271.419 317.936 271.611 317.8 271.858C317.666 272.105 317.599 272.395 317.599 272.727H316.594C316.594 272.216 316.712 271.767 316.947 271.381C317.183 270.994 317.504 270.693 317.911 270.477C318.32 270.261 318.778 270.153 319.287 270.153C319.798 270.153 320.251 270.261 320.646 270.477C321.041 270.693 321.351 270.984 321.575 271.351C321.8 271.717 321.912 272.125 321.912 272.574C321.912 272.895 321.854 273.209 321.737 273.516C321.624 273.82 321.425 274.159 321.141 274.534C320.859 274.906 320.469 275.361 319.969 275.898L318.009 277.994V278.062H322.065V279H316.56Z" fill="white"/>
<path d="M328.936 275.96V277.728C328.936 277.928 328.872 277.976 328.64 277.976C328.256 277.976 327.896 277.952 327.496 277.896C327.568 278.104 327.6 278.232 327.624 278.44C327.984 278.464 328.32 278.472 328.584 278.472C328.944 278.472 329.096 278.448 329.224 278.368C329.376 278.264 329.448 278.096 329.448 277.808V272.544C329.448 272.136 329.456 271.936 329.48 271.72C329.208 271.752 329 271.76 328.648 271.76H325.64C325.296 271.76 325.088 271.752 324.8 271.72C324.824 272.024 324.832 272.344 324.832 273.08C324.832 274.856 324.744 275.84 324.52 276.6C324.328 277.248 324.072 277.672 323.576 278.168C323.76 278.296 323.872 278.408 324.016 278.592C324.464 278.08 324.688 277.728 324.896 277.2C325.048 276.824 325.152 276.424 325.224 275.96H328.936ZM325.28 275.48C325.344 274.8 325.36 274.496 325.368 274.056H328.936V275.48H325.28ZM325.368 273.576V273.384L325.376 272.248H328.936V273.576H325.368Z" fill="white"/>
<path d="M8 0V268" stroke="#777777"/>
<path d="M60 0V268" stroke="#777777"/>
<path d="M112 0V268" stroke="#777777"/>
<path d="M164 0V268" stroke="#777777"/>
<path d="M216 0V268" stroke="#777777"/>
<path d="M268 0V268" stroke="#777777"/>
<path d="M320 0V268" stroke="#777777"/>
<path d="M372 0V268" stroke="#777777"/>
<path d="M424 0V268" stroke="#777777"/>
<path d="M476 0V268" stroke="#777777"/>
<path d="M528 0V268" stroke="#777777"/>
<path d="M580 0V268" stroke="#777777"/>
<path d="M8 18.329L60 26.7641L112 97.3528L164 70.2781L216 85.1506L268 115.111L320 85.1506L372 123.5L424 144.5L476 152.871L528 164.625L580 152.542" stroke="#FFCC21" stroke-width="3"/>
<circle cx="60.5" cy="27" r="4" fill="#FFCC21"/>
<circle cx="8" cy="18.5" r="4" fill="#FFCC21"/>
<circle cx="112.5" cy="98" r="4" fill="#FFCC21"/>
<circle cx="164.5" cy="71" r="4" fill="#FFCC21"/>
<circle cx="267.5" cy="115" r="4" fill="#FFCC21"/>
<circle cx="215.5" cy="85" r="4" fill="#FFCC21"/>
<circle cx="320.5" cy="85" r="4" fill="#FFCC21"/>
<circle cx="372.5" cy="124" r="4" fill="#FFCC21"/>
<circle cx="423.5" cy="144" r="4" fill="#FFCC21"/>
<circle cx="475.5" cy="153" r="4" fill="#FFCC21"/>
<circle cx="527.5" cy="165" r="4" fill="#FFCC21"/>
<circle cx="580.5" cy="153" r="4" fill="#FFCC21"/>
<path d="M8 18.329L60 37.4996L112 80.4996L164 88.4996L216 130.5L268 134.5L320 161.5L372 167.5L424 181.5L476 217.5L528 227.875L579.93 238.5" stroke="#8FE9D0" stroke-width="3"/>
<circle cx="59.5" cy="38" r="4" fill="#8FE9D0"/>
<circle cx="8" cy="18.5" r="4" fill="#8FE9D0"/>
<circle cx="112.5" cy="81" r="4" fill="#8FE9D0"/>
<circle cx="163.5" cy="89" r="4" fill="#8FE9D0"/>
<circle cx="215.5" cy="131" r="4" fill="#8FE9D0"/>
<circle cx="268.5" cy="135" r="4" fill="#8FE9D0"/>
<circle cx="319.5" cy="161" r="4" fill="#8FE9D0"/>
<circle cx="371.5" cy="168" r="4" fill="#8FE9D0"/>
<circle cx="424.5" cy="182" r="4" fill="#8FE9D0"/>
<circle cx="476.5" cy="217" r="4" fill="#8FE9D0"/>
<circle cx="579.5" cy="239" r="4" fill="#8FE9D0"/>
<circle cx="527.5" cy="228" r="4" fill="#8FE9D0"/>
</g>
<defs>
<clipPath id="clip0_0_4">
<rect width="589" height="293.625" fill="white"/>
</clipPath>
</defs>
</svg>
